<?xml version="1.0" encoding="UTF-8"?>
<svg width="65px" height="65px" viewBox="0 0 65 65" version="1.1" xmlns="http://www.w3.org/2000/svg" xmlns:xlink="http://www.w3.org/1999/xlink">
    <!-- Generator: Sketch 55.2 (78181) - https://sketchapp.com -->
    <title>故障</title>
    <desc>Created with Sketch.</desc>
    <defs>
        <rect id="path-1" x="0" y="0" width="65" height="65" rx="10"></rect>
    </defs>
    <g id="页面1" stroke="none" stroke-width="1" fill="none" fill-rule="evenodd">
        <g id="主页展示备份" transform="translate(-1007.000000, -811.000000)">
            <g id="编组-10" transform="translate(1007.000000, 811.000000)">
                <rect id="故障" stroke="#979797" fill="#D8D8D8" opacity="0" x="0.5" y="0.5" width="64" height="64"></rect>
                <g id="编组-9">
                    <g id="椭圆形备份-5">
                        <mask id="mask-2" fill="white">
                            <use xlink:href="#path-1"></use>
                        </mask>
                        <use id="蒙版" fill="#D84315" xlink:href="#path-1"></use>
                        <g id="guzhang-2" mask="url(#mask-2)" fill="#FFFFFF" fill-rule="nonzero">
                            <g transform="translate(14.000000, 16.000000)" id="形状">
                                <path d="M2.99998828,31.9209258 L33.0000117,31.9209258 C34.0800117,31.9209258 35.0399883,31.3209492 35.5200117,30.4809258 C36,29.5209492 36,28.4409492 35.5200117,27.4809375 L20.52,1.44094922 C20.0400117,0.4809375 18.9600117,0.00094921875 18,0.00094921875 C17.0399883,0.00094921875 15.9599883,0.600925781 15.48,1.44094922 L0.479988281,27.4809375 C0.119988281,27.9609258 0,28.4409492 0,28.9209375 L0,29.0409258 C0,29.5209492 0.119988281,30.0009375 0.36,30.4809258 C0.960011719,31.4409375 1.91998828,31.9209258 2.99998828,31.9209258 Z M16.6799883,10.2009375 C16.6799883,9.4809375 17.28,8.7609375 18,8.7609375 C18.72,8.7609375 19.3200117,9.36094922 19.3200117,10.0809492 L19.3200117,20.7609258 C19.3200117,21.4809258 18.72,22.0809375 18,22.0809375 C17.28,22.0809375 16.6799883,21.4809258 16.6799883,20.7609258 L16.6799883,10.2009375 Z M17.1600117,24.1209492 C17.64,23.8809375 18.36,23.8809375 18.8399883,24.1209492 C19.3200117,24.3609258 19.6800117,24.9609375 19.6800117,25.5609492 C19.6800117,26.1609609 19.3200117,26.6409492 18.8399883,27.0009492 C18.36,27.2409258 17.64,27.2409258 17.1600117,27.0009492 C16.6799883,26.7609375 16.3199883,26.1609258 16.3199883,25.5609492 C16.3199883,24.9609727 16.6799883,24.4809492 17.1600117,24.1209492 L17.1600117,24.1209492 Z"></path>
                            </g>
                        </g>
                        <ellipse id="椭圆形" fill="#FF9E80" mask="url(#mask-2)" cx="39.5" cy="-3" rx="39.5" ry="33"></ellipse>
                    </g>
                    <text id="故障" font-family="PingFang-SC-Heavy, PingFang SC" font-size="14" font-weight="600" letter-spacing="1.16666667" fill="#D0021B">
                        <tspan x="24" y="20">故障</tspan>
                    </text>
                </g>
            </g>
        </g>
    </g>
</svg>