<?xml version="1.0" encoding="UTF-8"?>
<svg width="80px" height="80px" viewBox="0 0 80 80" version="1.1" xmlns="http://www.w3.org/2000/svg" xmlns:xlink="http://www.w3.org/1999/xlink">
    <!-- Generator: Sketch 55.2 (78181) - https://sketchapp.com -->
    <title>订单查询</title>
    <desc>Created with Sketch.</desc>
    <defs>
        <linearGradient x1="50%" y1="0%" x2="50%" y2="100%" id="linearGradient-1">
            <stop stop-color="#FBD249" offset="0%"></stop>
            <stop stop-color="#FBD148" offset="17.0450749%"></stop>
            <stop stop-color="#F5A623" offset="100%"></stop>
        </linearGradient>
    </defs>
    <g id="页面1" stroke="none" stroke-width="1" fill="none" fill-rule="evenodd">
        <g id="主页展示" transform="translate(-1112.000000, -326.000000)">
            <g id="编组-3" transform="translate(1112.000000, 326.000000)">
                <rect id="订单查询" stroke="#979797" fill="#D8D8D8" opacity="0" x="0.5" y="0.5" width="79" height="79"></rect>
                <g id="dingdan" transform="translate(11.000000, 2.000000)" fill="url(#linearGradient-1)">
                    <path d="M37.1178535,12.3208435 L16.4952653,12.3208435 L16.4952653,4.08498555 L20.6461376,4.08498555 C20.6461376,2.94294658 21.0414588,1.97660592 21.8321012,1.18596355 C22.6227436,0.395321183 23.5890842,7.10542736e-15 24.7311232,7.10542736e-15 L28.8819956,7.10542736e-15 C30.0240345,7.10542736e-15 30.9903752,0.395321183 31.7810176,1.18596355 C32.5716599,1.97660592 32.9669811,2.94294658 32.9669811,4.08498555 L37.1178535,4.08498555 L37.1178535,12.3208435 Z M26.8395028,8.6311791 C27.542296,8.6311791 28.1462589,8.37861279 28.6513915,7.87348017 C29.1565242,7.36834754 29.4090905,6.76438463 29.4090905,6.06159142 C29.4090905,5.31487361 29.1565242,4.69992955 28.6513915,4.21675923 C28.1462589,3.7335889 27.542296,3.49200374 26.8395028,3.49200374 C26.092785,3.49200374 25.4778409,3.7335889 24.9946706,4.21675923 C24.5115003,4.69992955 24.2699151,5.31487361 24.2699151,6.06159142 C24.2699151,6.76438463 24.5115003,7.36834754 24.9946706,7.87348017 C25.4778409,8.37861279 26.092785,8.6311791 26.8395028,8.6311791 Z M43.3771055,41.047516 C45.3537114,41.047516 47.2205059,41.431856 48.9774889,42.2005361 C50.734472,42.9692161 52.2718322,44.0124248 53.5895694,45.3301621 C54.9073067,46.6478994 55.9505153,48.1852595 56.7191954,49.9422425 C57.4878755,51.6992256 57.8722155,53.56602 57.8722155,55.542626 C57.8722155,57.5631565 57.4878755,59.4519132 56.7191954,61.2088962 C55.9505154,62.9658792 54.9073067,64.5032394 53.5895694,65.8209767 C52.2718321,67.138714 50.734472,68.1709415 48.9774889,68.9176593 C47.2205059,69.664377 45.3537115,70.037736 43.3771055,70.037736 C41.356575,70.037736 39.4678183,69.6643771 37.7108353,68.9176593 C35.9538523,68.1709415 34.4164921,67.1387139 33.0987548,65.8209767 C31.7810175,64.5032394 30.7378088,62.9658793 29.9691288,61.2088962 C29.2004487,59.4519132 28.8161087,57.5631564 28.8161087,55.542626 C28.8161087,53.5660201 29.2004487,51.6992256 29.9691288,49.9422425 C30.7378088,48.1852595 31.7810175,46.6478993 33.0987548,45.3301621 C34.4164921,44.0124248 35.9538523,42.9692162 37.7108353,42.2005361 C39.4678183,41.4318559 41.356575,41.047516 43.3771055,41.047516 Z M52.337719,54.2907755 C52.6012665,53.9833034 52.8428516,53.6099445 53.0624745,53.1706987 C53.2820974,52.731453 53.2162105,52.3361318 52.8648139,51.9847352 C52.7769648,51.896886 52.568323,51.6772631 52.2388887,51.3258665 C51.9094544,50.9744699 51.7008127,50.7768094 51.6129635,50.7328848 C51.1737178,50.4254128 50.7564343,50.3814882 50.3611131,50.6011111 C49.965792,50.8207339 49.5704708,51.128206 49.1751496,51.5235271 C48.1648843,52.5337924 47.1656003,53.5220953 46.1772973,54.488436 C45.1889944,55.4547766 44.2555971,56.3771927 43.3771056,57.2556842 C43.0696335,57.5631563 42.7292181,57.7498357 42.3558592,57.8157226 C41.9825004,57.8816094 41.6860095,57.7608168 41.4663866,57.4533448 C41.3346128,57.3215711 41.1259711,57.1019482 40.8404614,56.7944762 C40.5549516,56.4870041 40.2584607,56.1575698 39.9509887,55.8061732 C39.6435166,55.4547766 39.3470257,55.1143611 39.061516,54.7849268 C38.7760063,54.4554925 38.5673645,54.2248885 38.4355908,54.0931147 C38.1720434,53.8734919 37.8755525,53.730737 37.5461181,53.6648501 C37.2166838,53.5989633 36.8762683,53.7197559 36.5248718,54.0272279 C36.4809472,54.0711525 36.3711358,54.1699827 36.1954375,54.3237188 C36.0197391,54.4774548 35.8440408,54.6531531 35.6683426,54.8508137 C35.4926443,55.0484743 35.316946,55.2241726 35.1412477,55.3779086 C34.9655493,55.5316446 34.8557379,55.6304749 34.8118133,55.6743994 C34.1529447,56.3771926 34.2407938,57.1897973 35.0753608,58.1122134 C35.3389083,58.4196854 35.6903049,58.8040255 36.1295506,59.2652335 C36.5687964,59.7264415 37.0300044,60.220593 37.5131747,60.7476879 C37.9963451,61.2747828 38.4795154,61.7908966 38.9626857,62.2960292 C39.445856,62.8011617 39.8631395,63.2074641 40.2145361,63.5149362 C40.5659327,63.8663328 41.049103,64.0310499 41.6640471,64.0090876 C42.2789911,63.9871253 42.7401992,63.8004459 43.0476712,63.4490493 C43.6626152,62.8780298 44.3654084,62.1862177 45.1560508,61.373613 C45.9466932,60.5610084 46.770279,59.7374226 47.6268082,58.9028556 C48.4833374,58.0682887 49.3179044,57.2447029 50.130509,56.4320982 C50.9431137,55.6194936 51.6788503,54.9057192 52.3377189,54.2907752 L52.337719,54.2907755 Z M24.5334626,53.56602 C24.5334626,53.873492 24.5224815,54.180964 24.5005192,54.488436 C24.4785569,54.795908 24.4675757,55.1253424 24.4675757,55.476739 C24.4675757,57.4533449 24.7530854,59.3311205 25.3241049,61.1100658 C25.8951244,62.8890111 26.7077291,64.5252016 27.7619189,66.0186371 L8.52295473,66.0186371 C7.6883878,66.0186371 6.77695287,65.777052 5.78864992,65.2938817 C4.80034697,64.8107113 3.87793089,64.173805 3.02140166,63.3831626 C2.16487243,62.5925203 1.45109808,61.6920664 0.880078594,60.6818012 C0.30905911,59.6715359 0.0235493679,58.6173461 0.0235493679,57.5192318 L0.0235493679,16.7352633 C0.0235493679,15.8128472 0.24317225,14.8574877 0.682418014,13.8691848 C1.12166378,12.8808818 1.69268326,11.9694469 2.39547647,11.1348799 C3.09826967,10.300313 3.91087432,9.60850094 4.8332904,9.05944371 C5.75570649,8.51038649 6.72204716,8.23585794 7.73231241,8.23585794 L12.4102797,8.23585794 L12.4102797,16.4717159 L41.202839,16.4717159 L41.202839,8.23585794 L45.2878246,8.23585794 C46.2980898,8.23585794 47.2973739,8.45548082 48.2856768,8.89472659 C49.2739798,9.33397235 50.1634525,9.92695411 50.9540948,10.6736719 C51.7447372,11.4203896 52.3926247,12.3208434 52.8977573,13.3750333 C53.4028899,14.4292232 53.6554562,15.5492998 53.6554562,16.7352634 L53.6554562,40.0592131 C52.1180961,39.0489478 50.4709245,38.2583054 48.7139415,37.687286 C46.9569584,37.1162665 45.0901639,36.8307567 43.113558,36.8307567 L42.65235,36.8307567 C43.4429923,36.5232847 44.0908798,36.0181521 44.5960125,35.3153589 C45.1011451,34.6125657 45.3537114,33.8219233 45.3537114,32.9434318 C45.3537114,31.8013928 44.9474091,30.8350521 44.1348044,30.0444098 C43.3221997,29.2537674 42.3448779,28.8584462 41.2028389,28.8584462 L12.4102796,28.8584462 C11.2682407,28.8584462 10.2909188,29.2537674 9.47831417,30.0444098 C8.66570951,30.8350521 8.25940717,31.8013928 8.25940717,32.9434318 C8.25940717,34.0854707 8.66570951,35.0627926 9.47831417,35.8753972 C10.2909188,36.6880019 11.2682407,37.0943042 12.4102796,37.0943042 L40.0168754,37.0943042 C37.3814008,37.53355 34.9875115,38.4669472 32.8352073,39.8944959 C30.682903,41.3220446 28.9039577,43.1339334 27.4983713,45.3301622 L12.4102796,45.3301622 C11.2682406,45.3301622 10.2909188,45.7254833 9.47831411,46.5161257 C8.66570944,47.3067681 8.2594071,48.2731087 8.2594071,49.4151477 C8.2594071,50.5571867 8.66570944,51.5345085 9.47831411,52.3471132 C10.2909188,53.1597178 11.2682406,53.5660202 12.4102796,53.5660202 L24.5334624,53.5660202 L24.5334626,53.56602 Z" id="形状"></path>
                </g>
            </g>
        </g>
    </g>
</svg>