<?xml version="1.0" encoding="UTF-8"?>
<svg width="65px" height="65px" viewBox="0 0 65 65" version="1.1" xmlns="http://www.w3.org/2000/svg" xmlns:xlink="http://www.w3.org/1999/xlink">
    <!-- Generator: Sketch 55.2 (78181) - https://sketchapp.com -->
    <title>充满</title>
    <desc>Created with Sketch.</desc>
    <defs>
        <rect id="path-1" x="0" y="0" width="65" height="65" rx="10"></rect>
    </defs>
    <g id="页面1" stroke="none" stroke-width="1" fill="none" fill-rule="evenodd">
        <g id="主页展示备份" transform="translate(-185.000000, -811.000000)">
            <g id="编组-14" transform="translate(185.000000, 811.000000)">
                <rect id="充满" stroke="#979797" fill="#D8D8D8" opacity="0" x="0.5" y="0.5" width="64" height="64"></rect>
                <g id="编组-13">
                    <g id="椭圆形备份-7">
                        <mask id="mask-2" fill="white">
                            <use xlink:href="#path-1"></use>
                        </mask>
                        <use id="蒙版" fill="#4A90E2" xlink:href="#path-1"></use>
                        <g id="资源-2" mask="url(#mask-2)" fill-rule="nonzero">
                            <g transform="translate(12.000000, 17.000000)">
                                <path d="M18.8604321,38.0575782 C8.40646512,37.9531331 -0.00565453644,29.4348751 0.021022914,18.9804217 C0.0478275206,8.52596823 8.50341384,0.0508554811 18.9577778,-2.84217094e-14 C29.4769753,0.0304938272 37.9753704,8.5617284 37.940294,19.0516049 C37.905,29.610679 29.3890123,38.0926543 18.8604321,38.0575782 Z M18.8709877,36.4846998 C28.4882716,36.4940741 36.3462963,28.6747531 36.3780447,19.0668519 C36.407284,9.4882716 28.5445679,1.59154321 18.9530864,1.56215297 C9.38271605,1.53524691 1.47074074,9.39209877 1.45546797,18.9308025 C1.43907407,28.6079012 9.24549383,36.4753086 18.8709877,36.4846998 Z" id="形状" fill="#FFFFFF"></path>
                                <path d="M23.1377778,7.40179012 L23.1377778,9.87296296 C23.1237037,9.88234568 23.0967284,9.89641975 23.0979012,9.90228395 C23.107843,9.92943097 23.1200035,9.9557132 23.1342593,9.9808642 C22.9935185,12.2409259 22.2429012,14.1303704 19.9969136,15.0909259 C19.7775926,15.1847531 19.7119136,15.2926543 19.7154321,15.5166667 C19.7271605,16.2391358 19.7341975,16.9627778 19.7154321,17.6852469 C19.7072222,17.991358 19.8033951,18.0687654 20.1059877,18.0922222 C21.0015988,18.1431002 21.8897104,18.2849623 22.7566049,18.5156173 C23.5072222,18.7325926 24.1640123,19.1254938 24.5158642,19.7846296 C25.4201235,21.4383333 26.3408025,23.0955556 26.8932099,24.9075926 C27.302545,26.2032957 27.302545,27.5936796 26.8932099,28.8893827 C26.5835802,29.8604938 26.541358,30.8316049 26.5566049,31.8214815 C26.5659877,32.5803086 26.3865432,32.7515432 25.6347531,32.7597531 C25.1656173,32.7597531 24.6964815,32.767963 24.2273457,32.7597531 C23.6409259,32.7491975 23.4298148,32.5369136 23.406358,31.9387654 C23.3969753,31.6854321 23.406358,31.4309259 23.406358,31.1764198 C23.406358,30.4258025 23.406358,30.4340123 22.6428395,30.5337037 C20.0448739,30.8697276 17.4144471,30.8697276 14.8164815,30.5337037 C14.4904321,30.4926543 14.2980864,30.5032099 14.3473457,30.9207407 C14.3702284,31.2913349 14.3725776,31.6629116 14.3543827,32.0337654 C14.3543827,32.5111111 14.0998765,32.7515432 13.6283951,32.7562346 C13.0619136,32.7620988 12.4942593,32.7562346 11.9277778,32.7562346 C11.4445679,32.7562346 11.2240741,32.4759259 11.1912346,32.0243827 C11.1877181,31.9853671 11.1877181,31.9461143 11.1912346,31.9070988 C11.275679,30.7694444 11.0739506,29.6787037 10.8206173,28.5645062 C10.4382716,26.9049383 10.6787037,25.2746914 11.3882716,23.7218519 C11.8503704,22.7143827 12.3746296,21.7280247 12.7874691,20.7053086 C13.3738889,19.2416049 14.4704938,18.517963 15.9740741,18.3080247 C16.5722222,18.2247531 17.1715432,18.1309259 17.7732099,18.0922222 C18.0746296,18.072284 18.1250617,17.955 18.1133333,17.699321 C18.0921625,17.4260679 18.0921625,17.1515864 18.1133333,16.8783333 C18.2071605,15.887284 18.1133333,15.1847531 16.9956173,14.600679 C15.3853086,13.7562346 14.8364198,12.0591358 14.7050617,10.2951852 C14.6393827,9.40148148 14.7050617,8.49722222 14.6780864,7.59765432 C14.6604938,7.08864198 14.8411111,6.8458642 15.353642,6.92679012 C15.8051852,6.99950617 15.9072222,6.80950617 15.8908025,6.38611111 C15.8556173,5.50765432 15.8814198,4.62685185 15.8790741,3.74722222 C15.8790741,3.3132716 15.989321,2.94382716 16.5041975,2.94148148 C17.0366667,2.94148148 17.107037,3.32969136 17.1093827,3.76246914 C17.1093827,4.68080247 17.1398765,5.5991358 17.1234568,6.51746914 C17.1175926,6.85759259 17.2301852,6.94438272 17.5550617,6.93617284 C18.4730041,6.91427984 19.3913374,6.91193416 20.3100617,6.9291358 C20.6243827,6.9291358 20.7064815,6.83530864 20.7006173,6.53271605 C20.6830247,5.65308642 20.7006173,4.77345679 20.6935802,3.89382716 C20.6935802,3.44462963 20.6935802,2.9954321 21.2929012,2.94265432 C21.7420988,2.90277778 21.9238889,3.19716049 21.9262346,3.91611111 C21.9262346,4.75703704 21.9438272,5.59796296 21.9180247,6.43771605 C21.9062963,6.81537037 22.003642,6.96783951 22.4012346,6.93030864 C22.697963,6.90098765 23.0568519,6.84234568 23.1330864,7.29506173 C23.1201852,7.30561728 23.0943827,7.32203704 23.0967284,7.3267284 C23.1084292,7.35278312 23.1221544,7.37788057 23.1377778,7.40179012 L23.1377778,7.40179012 Z M21.7397531,19.0234568 L16.1101235,19.0234568 C16.0643827,18.9554321 16.0303704,18.9695062 16.0033951,19.0387037 C15.0510494,19.3025926 14.4364815,19.920679 14.0693827,20.827284 C13.8348148,21.4019753 13.5404321,21.952037 13.2882716,22.5196914 C13.0537037,23.0615432 13.2237654,23.3500617 13.8066667,23.3500617 C17.2211934,23.355535 20.6357202,23.355535 24.0502469,23.3500617 C24.6366667,23.3500617 24.8161111,23.0580247 24.5733333,22.5208642 C24.3176543,21.9543827 24.012716,21.4101852 23.7758025,20.8366667 C23.4040123,19.9359259 22.7988272,19.3119753 21.85,19.0375309 C21.8148148,18.9683333 21.7854938,18.9554321 21.7397531,19.0234568 Z M14.089321,28.2583951 C14.3024296,28.2334996 14.5136252,28.1943167 14.7214815,28.1411111 C15.1437037,28.0097531 15.5283951,27.7974691 15.6187037,27.3201235 C15.7090123,26.8427778 15.4498148,26.4909259 15.0932716,26.2211728 C14.3933277,25.6636117 13.4630591,25.4880064 12.6080247,25.752037 C12.2104321,25.869321 11.8491975,26.088642 11.7717901,26.5577778 C11.6943827,27.0269136 11.9125309,27.352963 12.2409259,27.6262346 C12.7616667,28.0554938 13.3703704,28.2173457 14.089321,28.2583951 L14.089321,28.2583951 Z M23.8238889,28.2490123 C24.4724691,28.2490123 25.2312963,27.9804321 25.6535185,27.5945679 C26.3830247,26.9190123 26.2000617,26.0534568 25.2524074,25.7508642 C24.6143827,25.547963 23.9798765,25.620679 23.3676543,25.8681481 C22.6135185,26.1672222 22.1197531,26.8134568 22.2288272,27.3224691 C22.347284,27.8596296 23.0052469,28.2431481 23.8274074,28.2490123 L23.8238889,28.2490123 Z M20.2338272,7.72432099 L20.1165432,7.62228395 C19.0105556,8.70481481 17.8951852,9.77679012 16.8067901,10.8769136 C16.5499383,11.137284 16.8490123,11.1419753 17.0143827,11.144321 C17.6195679,11.151358 18.2247531,11.144321 18.8311111,11.144321 C18.9366667,11.144321 19.0774074,11.085679 19.1407407,11.2252469 C19.2040741,11.3648148 19.0715432,11.4340123 19.0046914,11.5208025 C18.9096914,11.6451235 18.802963,11.7553704 18.6997531,11.8726543 L17.5034568,13.2249383 C17.5480247,13.2659877 17.5914198,13.3082099 17.6348148,13.3504321 L21.1111111,10.5062963 L21.0665432,10.3608642 C20.4332099,10.3608642 19.8010494,10.3690741 19.1688889,10.3608642 C18.9249383,10.3608642 18.5707407,10.4887037 18.459321,10.2787654 C18.3185802,10.0125309 18.6751235,9.8237037 18.8229012,9.61493827 C19.2744444,8.96987654 19.7635185,8.3541358 20.2373457,7.72901235 L20.2338272,7.72432099 Z" id="形状" fill="#FFFFFF"></path>
                                <path d="M23.1342593,9.9808642 C23.1200035,9.9557132 23.107843,9.92943097 23.0979012,9.90228395 C23.0979012,9.89641975 23.1237037,9.88234568 23.1377778,9.87296296 C23.1542122,9.90736408 23.1529,9.94760683 23.1342593,9.9808642 Z" id="路径" fill="#444549"></path>
                                <path d="M23.1377778,7.40179012 C23.1220451,7.3771278 23.1083179,7.35124217 23.0967284,7.32438272 C23.0967284,7.32438272 23.1201852,7.3032716 23.1330864,7.29271605 C23.1538064,7.32569319 23.1555897,7.36715569 23.1377778,7.40179012 L23.1377778,7.40179012 Z" id="路径" fill="#444549"></path>
                                <path d="M21.8464815,19.0375309 L21.7901852,19.0480864 L21.7397531,19.0234568 C21.7854938,18.9554321 21.8148148,18.9683333 21.8464815,19.0375309 Z" id="路径" fill="#444549"></path>
                                <path d="M16.1066049,19.022284 L16.0561728,19.0480864 L15.9998765,19.0375309 C16.0268519,18.9683333 16.0608642,18.9542593 16.1066049,19.022284 Z" id="路径" fill="#444549"></path>
                            </g>
                        </g>
                        <ellipse id="椭圆形" fill="#CAE1FC" mask="url(#mask-2)" cx="39.5" cy="-2" rx="39.5" ry="33"></ellipse>
                    </g>
                    <text id="已充满" font-family="PingFang-SC-Heavy, PingFang SC" font-size="14" font-weight="600" fill="#4A90E2">
                        <tspan x="16" y="20">已充满</tspan>
                    </text>
                </g>
            </g>
        </g>
    </g>
</svg>