<?xml version="1.0" encoding="UTF-8"?>
<svg width="75px" height="76px" viewBox="0 0 75 76" version="1.1" xmlns="http://www.w3.org/2000/svg" xmlns:xlink="http://www.w3.org/1999/xlink">
    <!-- Generator: Sketch 55.2 (78181) - https://sketchapp.com -->
    <title>充电</title>
    <desc>Created with Sketch.</desc>
    <defs>
        <linearGradient x1="50%" y1="0%" x2="50%" y2="100%" id="linearGradient-1">
            <stop stop-color="#B480F3" offset="0%"></stop>
            <stop stop-color="#4A90E2" offset="100%"></stop>
        </linearGradient>
    </defs>
    <g id="页面1" stroke="none" stroke-width="1" fill="none" fill-rule="evenodd">
        <g id="主页展示" transform="translate(-637.000000, -323.000000)">
            <g id="编组-2" transform="translate(614.000000, 304.000000)">
                <g id="充电桩" transform="translate(23.000000, 19.000000)">
                    <rect id="充电" fill="#000000" fill-rule="nonzero" opacity="0" x="0" y="0.266666667" width="75" height="75"></rect>
                    <path d="M72.1111111,29.7555555 L69.2666667,29.7555555 L69.2666667,56.7777778 C69.2666667,62.2760793 64.8094126,66.7333334 59.3111111,66.7333334 C53.8128096,66.7333334 49.3555555,62.2760793 49.3555555,56.7777778 L49.3555555,26.9111111 C49.3555555,25.3401679 48.0820544,24.0666667 46.5111111,24.0666667 L46.5111111,69.5777778 L52.2,69.5777778 L52.2,75.2666667 L1,75.2666667 L1,69.5777778 L6.68888887,69.5777778 L6.68888887,12.6888889 C6.68888887,11.1801017 7.28825223,9.73311057 8.35512586,8.66623695 C9.42199949,7.59936333 10.8689907,7 12.3777778,7 L40.8222222,7 C42.3310093,7 43.7780005,7.59936333 44.8448741,8.66623695 C45.9117478,9.73311057 46.5111111,11.1801017 46.5111111,12.6888889 L46.5111111,18.3777778 C51.223941,18.3777778 55.0444445,22.1982813 55.0444445,26.9111111 L55.0444445,56.7777778 C55.0444445,59.1341927 56.9546962,61.0444445 59.3111111,61.0444445 C61.6675261,61.0444445 63.5777778,59.1341927 63.5777778,56.7777778 L63.5777778,29.7555555 L60.7333333,29.7555555 C59.1623901,29.7555555 57.8888889,28.4820544 57.8888889,26.9111111 L57.8888889,21.2222222 C57.8888889,19.6512789 59.1623901,18.3777778 60.7333333,18.3777778 L60.7333333,16.9555555 C60.7333333,16.1700839 61.3700839,15.5333333 62.1555556,15.5333333 C62.9410272,15.5333333 63.5777778,16.1700839 63.5777778,16.9555555 L63.5777778,18.3777778 L69.2666667,18.3777778 L69.2666667,16.9555555 C69.2666667,16.1700839 69.9034172,15.5333333 70.6888889,15.5333333 C71.4743606,15.5333333 72.1111111,16.1700839 72.1111111,16.9555555 L72.1111111,18.3777778 C73.6820544,18.3777778 74.9555555,19.651279 74.9555555,21.2222222 L74.9555555,26.9111111 C74.9555555,28.4820544 73.6820544,29.7555555 72.1111111,29.7555555 Z M23.7555555,61.0444445 L35.1333333,49.6666667 L26.6,49.6666667 L26.6,41.1333333 L18.0666667,52.5111111 L26.6,52.5111111 L23.7555555,61.0444445 Z M40.8222222,15.5333333 L12.3777778,15.5333333 L12.3777778,32.6 L40.8222222,32.6 L40.8222222,15.5333333 Z M69.2666667,21.2222222 L63.5777778,21.2222222 C62.0068345,21.2222222 60.7333333,22.4957234 60.7333333,24.0666667 C60.7333333,25.63761 62.0068345,26.9111111 63.5777778,26.9111111 L69.2666667,26.9111111 C70.83761,26.9111111 72.1111111,25.63761 72.1111111,24.0666667 C72.1111111,22.4957234 70.83761,21.2222222 69.2666667,21.2222222 Z" id="形状" fill="url(#linearGradient-1)"></path>
                </g>
            </g>
        </g>
    </g>
</svg>