<?xml version="1.0" encoding="UTF-8"?>
<svg width="65px" height="65px" viewBox="0 0 65 65" version="1.1" xmlns="http://www.w3.org/2000/svg" xmlns:xlink="http://www.w3.org/1999/xlink">
    <!-- Generator: Sketch 55.2 (78181) - https://sketchapp.com -->
    <title>充电中</title>
    <desc>Created with Sketch.</desc>
    <defs>
        <rect id="path-1" x="0" y="0" width="65" height="65" rx="10"></rect>
    </defs>
    <g id="页面1" stroke="none" stroke-width="1" fill="none" fill-rule="evenodd">
        <g id="主页展示备份" transform="translate(-597.000000, -203.000000)">
            <g id="编组-5" transform="translate(597.000000, 203.000000)">
                <rect id="充电中" stroke="#979797" fill="#D8D8D8" opacity="0" x="0.5" y="0.5" width="64" height="64"></rect>
                <text id="充电中" font-family="PingFangSC-Medium, PingFang SC" font-size="12" font-weight="400" fill="#FFFFFF">
                    <tspan x="33" y="14">充电中</tspan>
                </text>
                <g id="chongdianzhuang备份" transform="translate(14.000000, 19.000000)" fill="#FFFFFF" fill-rule="nonzero">
                    <path d="M32.4486291,10.2349889 L31.150684,10.2349889 L31.150684,22.3890382 C31.150684,24.8620631 29.1167995,26.8668459 26.6078759,26.8668459 C24.0989523,26.8668459 22.0650678,24.8620631 22.0650678,22.3890382 L22.0650678,8.9556153 C22.0650678,8.24903677 21.483958,7.6762417 20.7671227,7.67624168 L20.7671227,28.1462195 L23.363013,28.1462195 L23.363013,30.7049667 L0,30.7049667 L0,28.1462195 L2.59589032,28.1462195 L2.59589032,2.55874722 C2.59589032,1.88012526 2.86938513,1.22929788 3.356209,0.749439698 C3.84303288,0.269581511 4.50330775,0 5.19178067,0 L18.1712323,0 C18.8597052,0 19.5199801,0.269581511 20.006804,0.749439698 C20.4936279,1.22929788 20.7671227,1.88012526 20.7671227,2.55874722 L20.7671227,5.11749446 C22.9176286,5.11749446 24.6609582,6.83587969 24.6609582,8.9556153 L24.6609582,22.3890382 C24.6609582,23.448906 25.5326229,24.3080987 26.6078759,24.3080987 C27.6831289,24.3080987 28.5547937,23.448906 28.5547937,22.3890382 L28.5547937,10.2349889 L27.2568485,10.2349889 C26.5400132,10.2349889 25.9589033,9.66219383 25.9589033,8.9556153 L25.9589033,6.39686806 C25.9589033,5.69028953 26.5400132,5.11749446 27.2568485,5.11749446 L27.2568485,4.47780764 C27.2568485,4.12451837 27.5474034,3.83812082 27.9058211,3.83812082 C28.2642387,3.83812082 28.5547937,4.12451837 28.5547937,4.47780764 L28.5547937,5.11749446 L31.150684,5.11749446 L31.150684,4.47780764 C31.150684,4.12451837 31.4412389,3.83812082 31.7996566,3.83812082 C32.1580742,3.83812082 32.4486291,4.12451837 32.4486291,4.47780764 L32.4486291,5.11749446 C33.1654645,5.11749448 33.7465743,5.69028954 33.7465743,6.39686806 L33.7465743,8.9556153 C33.7465743,9.66219382 33.1654645,10.2349889 32.4486291,10.2349889 Z M10.3835613,24.3080987 L15.575342,19.1906042 L11.6815065,19.1906042 L11.6815065,15.3524834 L7.78767099,20.4699778 L11.6815065,20.4699778 L10.3835613,24.3080987 Z M18.1712323,3.83812084 L5.19178067,3.83812084 L5.19178067,11.5143625 L18.1712323,11.5143625 L18.1712323,3.83812084 Z M31.150684,6.39686806 L28.5547937,6.39686806 C27.8379583,6.39686806 27.2568485,6.96966314 27.2568485,7.67624168 C27.2568485,8.38282022 27.8379583,8.9556153 28.5547937,8.9556153 L31.150684,8.9556153 C31.8675193,8.9556153 32.4486291,8.38282022 32.4486291,7.67624168 C32.4486291,6.96966314 31.8675193,6.39686806 31.150684,6.39686806 Z" id="形状"></path>
                </g>
                <g id="编组-4">
                    <g id="椭圆形备份">
                        <mask id="mask-2" fill="white">
                            <use xlink:href="#path-1"></use>
                        </mask>
                        <use id="蒙版" fill="#7ED321" xlink:href="#path-1"></use>
                        <g id="electricity-full" mask="url(#mask-2)" fill="#FFFFFF" fill-rule="nonzero">
                            <g transform="translate(14.000000, 24.000000)">
                                <path d="M34.6007812,7.4109375 C34.425,7.30898438 34.3125,7.12265625 34.3125,6.92226563 L34.3125,3.43125 C34.3125,1.546875 32.7691406,0.00350963069 30.8847656,0.00350963069 L3.42773437,0.00350963069 C1.54335937,5.20417043e-16 0,1.54335937 0,3.42773437 L0,16.81875 C0,18.7066406 1.54335937,20.25 3.42773437,20.25 L30.88125,20.25 C32.765625,20.25 34.3089844,18.7066406 34.3089844,16.8222656 L34.3089844,13.33125 C34.3089844,13.1273438 34.4214844,12.9445312 34.5972656,12.8425781 C35.4339844,12.3539063 35.9965008,11.446875 35.9965008,10.4097656 L35.9965008,9.84726562 C36,8.80664062 35.4375,7.89609375 34.6007812,7.4109375 Z M32.0625,16.8222656 C32.0625,17.2441406 31.8445312,17.521875 31.7144531,17.6519531 C31.584375,17.7820313 31.303125,18 30.8847656,18 L3.42773438,18 C3.009375,18 2.728125,17.7820312 2.59804688,17.6519531 C2.46796875,17.521875 2.25,17.240625 2.25,16.8222656 L2.25,3.42773438 C2.25,3.009375 2.46796875,2.728125 2.59804688,2.59804687 C2.728125,2.46796875 3.009375,2.25 3.42773438,2.25 L30.88125,2.25 C31.2996094,2.25 31.5808594,2.46796875 31.7109375,2.59804687 C31.8410156,2.728125 32.0589844,3.009375 32.0589844,3.42773438 L32.0589844,16.8222656 L32.0625,16.8222656 Z" id="形状"></path>
                                <path d="M25.875,4.21875 L25.875,16.03125 C25.875,16.340625 25.621875,16.59375 25.3125,16.59375 L3.9375,16.59375 C3.628125,16.59375 3.375,16.340625 3.375,16.03125 L3.375,4.21875 C3.375,3.909375 3.628125,3.65625 3.9375,3.65625 L25.3125,3.65625 C25.621875,3.65625 25.875,3.909375 25.875,4.21875 Z" id="路径"></path>
                            </g>
                        </g>
                        <ellipse id="椭圆形" fill="#D2F1B3" mask="url(#mask-2)" cx="39.5" cy="-3" rx="39.5" ry="33"></ellipse>
                    </g>
                    <text id="充电中" font-family="PingFang-SC-Heavy, PingFang SC" font-size="14" font-weight="600" fill="#7ED321">
                        <tspan x="18" y="19">充电中</tspan>
                    </text>
                </g>
            </g>
        </g>
    </g>
</svg>