<?xml version="1.0" encoding="UTF-8"?>
<svg width="80px" height="80px" viewBox="0 0 80 80" version="1.1" xmlns="http://www.w3.org/2000/svg" xmlns:xlink="http://www.w3.org/1999/xlink">
    <!-- Generator: Sketch 55.2 (78181) - https://sketchapp.com -->
    <title>矩形</title>
    <desc>Created with Sketch.</desc>
    <defs>
        <linearGradient x1="68.4628318%" y1="13.9573054%" x2="39.8014772%" y2="131.106292%" id="linearGradient-1">
            <stop stop-color="#4380F5" offset="0%"></stop>
            <stop stop-color="#74FFA4" offset="100%"></stop>
        </linearGradient>
        <linearGradient x1="70.5761412%" y1="13.9573054%" x2="38.6341247%" y2="131.106292%" id="linearGradient-2">
            <stop stop-color="#5384E3" offset="0%"></stop>
            <stop stop-color="#74FFA4" offset="100%"></stop>
        </linearGradient>
    </defs>
    <g id="页面1" stroke="none" stroke-width="1" fill="none" fill-rule="evenodd">
        <g id="主页展示" transform="translate(-1117.000000, -644.000000)">
            <g id="编组" transform="translate(1095.000000, 625.000000)">
                <g id="编组-4" transform="translate(22.000000, 19.000000)">
                    <rect id="矩形" stroke="#979797" fill="#D8D8D8" opacity="0" x="0.5" y="2.5" width="79" height="79"></rect>
                    <g id="kaifajindu" transform="translate(4.000000, 7.000000)">
                        <path d="M42.3647018,62.1783069 L37.0002988,62.1783069 L37.0002988,53.6745091 L39.4081843,53.6745091 L39.4081843,51.4495011 C39.3699549,48.4250746 39.9941515,45.428931 41.236958,42.6713871 L0.0285898186,42.6713871 L0.0285898186,44.7135178 C-0.343091941,49.2036917 2.95213715,53.1633909 7.43512343,53.6135499 L23.8940871,53.6135499 L23.8940871,62.1783069 L15.4817279,62.1783069 C14.2825147,62.3685107 13.3996255,63.4024686 13.3996255,64.6166719 C13.3996255,65.8308753 14.2825147,66.8648331 15.4817279,67.055056 L45.7479332,67.055056 C46.0032388,67.0563143 46.2547741,66.9934304 46.4794427,66.8721596 C44.8490029,65.5549107 43.4571522,63.9671699 42.3647018,62.1783069 L42.3647018,62.1783069 Z M44.7421076,37.4898616 C48.1736064,33.8568001 52.9423974,31.7862857 57.9397581,31.7597038 C58.8274994,31.7702074 59.7134794,31.8414931 60.59148,31.9730608 L60.59148,8.8695526 C60.962478,4.38541946 57.6633603,0.434624217 53.1849464,1.42108547e-14 L7.46560304,1.42108547e-14 C2.97495365,0.419084465 -0.341713464,4.37461776 0.0285898186,8.8695526 L0.0285898186,39.9587061 L42.699977,39.9587061 C43.3209733,39.0881366 44.0034237,38.2630846 44.7421076,37.4898616 Z M18.3163272,27.431606 C18.9708014,28.2112001 19.0797264,29.3125529 18.5906433,30.2052462 L18.3163272,30.4795622 C18.0038485,30.8662348 17.5333361,31.0909479 17.0361856,31.0909479 C16.5390351,31.0909479 16.0685226,30.8662348 15.756044,30.4795622 L8.10567384,21.57953 C7.68882353,21.0323759 7.51274584,20.3390699 7.61800087,19.6593176 C7.61800087,19.4154811 7.61800087,19.0497263 8.28855122,18.4401351 L15.8474827,10.7288059 C16.1780629,10.3705945 16.6575276,10.1881915 17.1426085,10.2361007 C17.6276893,10.2840099 18.0622083,10.5566829 18.3163272,10.9726424 C18.8455444,11.8214572 18.8455444,12.8974678 18.3163272,13.7462826 L18.3163272,14.1120373 L12.2204147,20.2079497 L18.3163272,27.431606 Z M35.6287185,13.5329256 L27.9478688,30.2966849 C27.6539154,30.8971829 27.1055133,31.3336663 26.4543703,31.4853878 C26.0699302,31.5400495 25.6830263,31.4034952 25.4180651,31.119633 C24.5067369,30.3911262 24.1947897,29.1433374 24.6560761,28.0716768 L32.2150076,11.3079176 C32.3499935,10.7799999 32.7331451,10.3506279 33.2423494,10.1566453 C33.7515538,9.96266267 34.3232709,10.0282751 34.7752908,10.3325716 C35.790017,11.0474145 36.1162408,12.4045053 35.5372798,13.5024461 L35.6287185,13.5329256 Z M42.4256609,14.5082716 C41.650197,13.6735688 41.5373818,12.4200667 42.1513449,11.4603154 C42.9133339,10.4849694 43.949639,10.241133 44.7116281,11.0945607 C47.7124411,13.9822219 50.4937898,17.0895894 53.0325486,20.3908271 C53.2459771,21.0662312 53.0702503,21.8042839 52.5753551,22.3110395 L44.9859441,31.2415513 C44.6801373,31.6388693 44.2071801,31.8716717 43.7058025,31.8716717 C43.204425,31.8716717 42.7314677,31.6388693 42.4256609,31.2415513 C41.7344782,30.3431201 41.7344782,29.0920262 42.4256609,28.1935951 L48.5215734,21.0918571 L42.4256609,14.5082716 Z" id="形状" fill="url(#linearGradient-1)"></path>
                        <path d="M57.9397581,35.2038944 C53.8834795,35.2180958 50.0127943,36.9053176 47.2414318,39.8672674 C44.3611522,42.9130802 42.7671159,46.9527613 42.7914157,51.1447054 C42.586884,59.7190497 49.3656996,66.8388521 57.9397581,67.0550369 C62.0789051,66.975227 66.0152237,65.2476078 68.8760482,62.2551854 C71.7368726,59.2627631 73.2858359,55.2527774 73.1795392,51.1142259 C73.2775939,46.9808842 71.7249615,42.9787723 68.8650211,39.9929946 C66.0050807,37.0072168 62.0734904,35.2838002 57.9397581,35.2038944 L57.9397581,35.2038944 Z M66.4740355,56.5395879 C66.2574638,57.1661632 65.6738031,57.5917492 65.0110165,57.6063726 C64.8292934,57.6354302 64.6441075,57.6354302 64.4623844,57.6063726 L55.3185157,54.1317025 C54.6848153,53.8610154 54.27604,53.2358297 54.2822106,52.5467653 L54.2822106,43.4028966 C54.2657346,42.9743795 54.42032,42.5568958 54.711901,42.2424457 C55.003482,41.9279956 55.4081282,41.7423865 55.8366683,41.7265207 C56.7337301,41.7596024 57.4388388,42.5053905 57.4216055,43.4028966 L57.4216055,50.8399098 C57.4146885,50.9618672 57.4892465,51.0737041 57.6044829,51.1142259 L65.254853,54.1621821 C65.7410969,54.3573438 66.1264759,54.7427229 66.3216377,55.2289668 C66.5187471,55.6033574 66.6034249,56.0267465 66.5654742,56.4481492 L66.4740355,56.5395879 Z" id="形状" fill="url(#linearGradient-2)"></path>
                    </g>
                </g>
            </g>
        </g>
    </g>
</svg>