<?xml version="1.0" encoding="UTF-8"?>
<svg width="65px" height="65px" viewBox="0 0 65 65" version="1.1" xmlns="http://www.w3.org/2000/svg" xmlns:xlink="http://www.w3.org/1999/xlink">
    <!-- Generator: Sketch 55.2 (78181) - https://sketchapp.com -->
    <title>空闲</title>
    <desc>Created with Sketch.</desc>
    <defs>
        <rect id="path-1" x="0" y="0" width="65" height="65" rx="10"></rect>
        <rect id="path-3" x="0" y="0" width="65" height="65" rx="10"></rect>
    </defs>
    <g id="页面1" stroke="none" stroke-width="1" fill="none" fill-rule="evenodd">
        <g id="主页展示备份" transform="translate(-185.000000, -203.000000)">
            <g id="编组" transform="translate(185.000000, 203.000000)">
                <rect id="空闲" stroke="#979797" fill="#D8D8D8" opacity="0" x="0.5" y="0.5" width="64" height="64"></rect>
                <g id="椭圆形">
                    <mask id="mask-2" fill="white">
                        <use xlink:href="#path-1"></use>
                    </mask>
                    <use id="蒙版" fill="#80DEEA" xlink:href="#path-1"></use>
                    <mask id="mask-4" fill="white">
                        <use xlink:href="#path-3"></use>
                    </mask>
                    <use id="蒙版备份" fill="#80DEEA" xlink:href="#path-3"></use>
                    <g id="chongdianzhuang" mask="url(#mask-4)" fill="#FFFFFF" fill-rule="nonzero">
                        <g transform="translate(17.000000, 21.000000)" id="形状">
                            <path d="M32.4486291,10.2349889 L31.150684,10.2349889 L31.150684,22.3890382 C31.150684,24.8620631 29.1167995,26.8668459 26.6078759,26.8668459 C24.0989523,26.8668459 22.0650678,24.8620631 22.0650678,22.3890382 L22.0650678,8.9556153 C22.0650678,8.24903677 21.483958,7.6762417 20.7671227,7.67624168 L20.7671227,28.1462195 L23.363013,28.1462195 L23.363013,30.7049667 L0,30.7049667 L0,28.1462195 L2.59589032,28.1462195 L2.59589032,2.55874722 C2.59589032,1.88012526 2.86938513,1.22929788 3.356209,0.749439698 C3.84303288,0.269581511 4.50330775,0 5.19178067,0 L18.1712323,0 C18.8597052,0 19.5199801,0.269581511 20.006804,0.749439698 C20.4936279,1.22929788 20.7671227,1.88012526 20.7671227,2.55874722 L20.7671227,5.11749446 C22.9176286,5.11749446 24.6609582,6.83587969 24.6609582,8.9556153 L24.6609582,22.3890382 C24.6609582,23.448906 25.5326229,24.3080987 26.6078759,24.3080987 C27.6831289,24.3080987 28.5547937,23.448906 28.5547937,22.3890382 L28.5547937,10.2349889 L27.2568485,10.2349889 C26.5400132,10.2349889 25.9589033,9.66219383 25.9589033,8.9556153 L25.9589033,6.39686806 C25.9589033,5.69028953 26.5400132,5.11749446 27.2568485,5.11749446 L27.2568485,4.47780764 C27.2568485,4.12451837 27.5474034,3.83812082 27.9058211,3.83812082 C28.2642387,3.83812082 28.5547937,4.12451837 28.5547937,4.47780764 L28.5547937,5.11749446 L31.150684,5.11749446 L31.150684,4.47780764 C31.150684,4.12451837 31.4412389,3.83812082 31.7996566,3.83812082 C32.1580742,3.83812082 32.4486291,4.12451837 32.4486291,4.47780764 L32.4486291,5.11749446 C33.1654645,5.11749448 33.7465743,5.69028954 33.7465743,6.39686806 L33.7465743,8.9556153 C33.7465743,9.66219382 33.1654645,10.2349889 32.4486291,10.2349889 Z M10.3835613,24.3080987 L15.575342,19.1906042 L11.6815065,19.1906042 L11.6815065,15.3524834 L7.78767099,20.4699778 L11.6815065,20.4699778 L10.3835613,24.3080987 Z M18.1712323,3.83812084 L5.19178067,3.83812084 L5.19178067,11.5143625 L18.1712323,11.5143625 L18.1712323,3.83812084 Z M31.150684,6.39686806 L28.5547937,6.39686806 C27.8379583,6.39686806 27.2568485,6.96966314 27.2568485,7.67624168 C27.2568485,8.38282022 27.8379583,8.9556153 28.5547937,8.9556153 L31.150684,8.9556153 C31.8675193,8.9556153 32.4486291,8.38282022 32.4486291,7.67624168 C32.4486291,6.96966314 31.8675193,6.39686806 31.150684,6.39686806 Z"></path>
                        </g>
                    </g>
                    <ellipse fill="#B2EBF2" mask="url(#mask-4)" cx="39.5" cy="-2" rx="39.5" ry="33"></ellipse>
                </g>
                <text id="空闲" font-family="PingFang-SC-Heavy, PingFang SC" font-size="14" font-weight="600" letter-spacing="1.16666667" fill="#36CFC9">
                    <tspan x="24" y="20">空闲</tspan>
                </text>
            </g>
        </g>
    </g>
</svg>