<?xml version="1.0" encoding="UTF-8"?>
<svg width="65px" height="65px" viewBox="0 0 65 65" version="1.1" xmlns="http://www.w3.org/2000/svg" xmlns:xlink="http://www.w3.org/1999/xlink">
    <!-- Generator: Sketch 55.2 (78181) - https://sketchapp.com -->
    <title>已插枪</title>
    <desc>Created with Sketch.</desc>
    <defs>
        <rect id="path-1" x="0" y="0" width="65" height="65" rx="10"></rect>
    </defs>
    <g id="页面1" stroke="none" stroke-width="1" fill="none" fill-rule="evenodd">
        <g id="主页展示备份" transform="translate(-1417.000000, -203.000000)">
            <g id="编组-7" transform="translate(1417.000000, 203.000000)">
                <rect id="已插枪" stroke="#979797" fill="#D8D8D8" opacity="0" x="0.5" y="0.5" width="64" height="64"></rect>
                <g id="编组-6">
                    <text id="充电中备份-4" font-family="PingFangSC-Medium, PingFang SC" font-size="12" font-weight="400" fill="#FFFFFF">
                        <tspan x="33" y="14">充电中</tspan>
                    </text>
                    <g id="chongdianzhuang备份-3" transform="translate(14.000000, 19.000000)" fill="#FFFFFF" fill-rule="nonzero">
                        <path d="M32.4486291,10.2349889 L31.150684,10.2349889 L31.150684,22.3890382 C31.150684,24.8620631 29.1167995,26.8668459 26.6078759,26.8668459 C24.0989523,26.8668459 22.0650678,24.8620631 22.0650678,22.3890382 L22.0650678,8.9556153 C22.0650678,8.24903677 21.483958,7.6762417 20.7671227,7.67624168 L20.7671227,28.1462195 L23.363013,28.1462195 L23.363013,30.7049667 L0,30.7049667 L0,28.1462195 L2.59589032,28.1462195 L2.59589032,2.55874722 C2.59589032,1.88012526 2.86938513,1.22929788 3.356209,0.749439698 C3.84303288,0.269581511 4.50330775,0 5.19178067,0 L18.1712323,0 C18.8597052,0 19.5199801,0.269581511 20.006804,0.749439698 C20.4936279,1.22929788 20.7671227,1.88012526 20.7671227,2.55874722 L20.7671227,5.11749446 C22.9176286,5.11749446 24.6609582,6.83587969 24.6609582,8.9556153 L24.6609582,22.3890382 C24.6609582,23.448906 25.5326229,24.3080987 26.6078759,24.3080987 C27.6831289,24.3080987 28.5547937,23.448906 28.5547937,22.3890382 L28.5547937,10.2349889 L27.2568485,10.2349889 C26.5400132,10.2349889 25.9589033,9.66219383 25.9589033,8.9556153 L25.9589033,6.39686806 C25.9589033,5.69028953 26.5400132,5.11749446 27.2568485,5.11749446 L27.2568485,4.47780764 C27.2568485,4.12451837 27.5474034,3.83812082 27.9058211,3.83812082 C28.2642387,3.83812082 28.5547937,4.12451837 28.5547937,4.47780764 L28.5547937,5.11749446 L31.150684,5.11749446 L31.150684,4.47780764 C31.150684,4.12451837 31.4412389,3.83812082 31.7996566,3.83812082 C32.1580742,3.83812082 32.4486291,4.12451837 32.4486291,4.47780764 L32.4486291,5.11749446 C33.1654645,5.11749448 33.7465743,5.69028954 33.7465743,6.39686806 L33.7465743,8.9556153 C33.7465743,9.66219382 33.1654645,10.2349889 32.4486291,10.2349889 Z M10.3835613,24.3080987 L15.575342,19.1906042 L11.6815065,19.1906042 L11.6815065,15.3524834 L7.78767099,20.4699778 L11.6815065,20.4699778 L10.3835613,24.3080987 Z M18.1712323,3.83812084 L5.19178067,3.83812084 L5.19178067,11.5143625 L18.1712323,11.5143625 L18.1712323,3.83812084 Z M31.150684,6.39686806 L28.5547937,6.39686806 C27.8379583,6.39686806 27.2568485,6.96966314 27.2568485,7.67624168 C27.2568485,8.38282022 27.8379583,8.9556153 28.5547937,8.9556153 L31.150684,8.9556153 C31.8675193,8.9556153 32.4486291,8.38282022 32.4486291,7.67624168 C32.4486291,6.96966314 31.8675193,6.39686806 31.150684,6.39686806 Z" id="形状"></path>
                    </g>
                    <g id="椭圆形备份-3">
                        <mask id="mask-2" fill="white">
                            <use xlink:href="#path-1"></use>
                        </mask>
                        <use id="蒙版" fill="#D4E157" xlink:href="#path-1"></use>
                        <g id="资源-1" mask="url(#mask-2)" fill-rule="nonzero">
                            <g transform="translate(12.000000, 15.000000)">
                                <path d="M19.0393403,0 C29.5554048,0 38.0013566,8.51859601 38,19.1261471 C38,29.5926259 29.4346709,38.0067741 18.789733,38 C8.41746394,37.9904966 0,29.4013644 0,18.8399331 C0.00678280737,8.47111976 8.56668571,0 19.0393403,0 Z M15.4566614,8.42228704 C15.4417393,8.43585168 15.4132515,8.45484218 15.414608,8.46162451 C15.4292902,8.49083096 15.4460649,8.51893781 15.4648008,8.54572529 C15.4756533,10.5804218 15.5000714,12.6069795 15.4878623,14.6376066 C15.4878623,15.079814 15.6004569,15.2073216 16.0467657,15.2018958 C18.0110667,15.1774794 19.9758199,15.1774794 21.9410253,15.2018958 C22.3791946,15.2018958 22.5148508,15.097448 22.5067114,14.6457454 C22.4755105,12.7466953 22.486363,10.8476453 22.4768671,8.95673399 C22.4768671,8.51723954 22.498572,8.08452742 22.8716264,7.78610527 C23.2229759,7.50531715 23.6068828,7.37916597 24.0626874,7.57856623 C24.605312,7.82408627 24.8196487,8.25679839 24.8223618,8.81973109 C24.8223618,10.513955 24.8223618,12.2108919 24.8223618,13.9010465 C24.8223618,15.1842617 24.8223618,15.1869747 26.1165215,15.1910441 C26.557404,15.1910441 26.9928602,15.1910441 27.1217335,15.743125 C27.1068114,15.7566897 27.076967,15.7756802 27.0796801,15.7824625 C27.0944663,15.8138989 27.1121798,15.8438734 27.132586,15.8719892 C27.132586,17.6787996 27.1529345,19.4856101 27.1475082,21.2978465 C27.1387726,22.6754705 26.873328,24.0393991 26.3647722,25.3197632 C25.2320434,28.2307357 23.4495216,30.4919617 20.212766,31.2217395 C19.9333143,31.2841369 19.927888,31.4564079 19.9292446,31.6693728 C19.9292446,33.0258371 19.9292446,34.3823014 19.9292446,35.7387658 C19.9292446,36.0236233 19.9916464,36.1457051 20.3077253,36.1036547 C20.865272,36.0236233 21.4350278,36.016841 21.9871484,35.9123932 C31.5468371,34.1082956 37.6391546,25.196325 35.8349279,15.6807277 C34.0089961,6.06339557 24.1318721,-0.200756721 14.6915608,2.39551601 C8.31572183,4.14942439 4.0846066,8.30291818 2.41874911,14.6959346 C0.77324004,21.0116325 2.41874911,26.6233255 7.03105812,31.2624335 C9.91646437,34.1611977 13.4679423,35.7387658 17.5539055,36.0982288 C17.9839355,36.1362098 18.0870341,36.0236233 18.0775382,35.6044758 C18.050407,34.340251 18.0585463,33.0733134 18.0775382,31.8063757 C18.0775382,31.4414868 18.028702,31.2488688 17.5932458,31.1824021 C16.9266655,31.0623687 16.2895927,30.8145592 15.7171212,30.4526243 C13.3065115,29.0107027 11.9757247,26.7901706 11.2675996,24.1613427 C10.5336998,21.4321365 10.9067542,18.6405329 10.8606312,15.8733456 C10.8769099,15.8624939 10.9094674,15.8475728 10.9081108,15.839434 C10.8991084,15.8070738 10.8868362,15.7757136 10.8714836,15.745838 C10.956947,15.345681 11.2431815,15.2100346 11.6121662,15.2032522 C11.9500089,15.1801852 12.2890315,15.1801852 12.6268742,15.2032522 C13.0813223,15.2547979 13.1857775,15.0771011 13.1803513,14.6430325 C13.1586463,12.684298 13.1586463,10.7160682 13.1708553,8.75733373 C13.1708553,8.07910156 13.5778238,7.60976491 14.177424,7.49989129 C14.7417535,7.39680001 15.2070541,7.7318467 15.4566614,8.42228704 Z M21.1542196,17.4210714 C21.0945309,17.4454878 21.0185635,17.4522701 20.9846494,17.4916076 C19.1560046,19.2703845 17.3291685,21.05097 15.5041411,22.8333641 C15.3969727,22.9378119 15.2328288,23.0449725 15.3115094,23.2280952 C15.3901899,23.4112179 15.5828216,23.3718804 15.7279737,23.3718804 C16.7901614,23.3718804 17.8509924,23.3718804 18.9131801,23.3718804 C19.1003855,23.3718804 19.3486363,23.2877797 19.4340997,23.5522902 C19.5005712,23.7584728 19.3201485,23.8791981 19.2048408,24.0107751 C18.4722976,24.8382184 17.731615,25.6602358 17.0072112,26.4958178 C16.871555,26.6613065 16.5676853,26.791527 16.7440383,27.1035138 C16.7765957,27.1035138 16.8064401,27.1225043 16.8172926,27.1130091 C18.724618,25.5657354 20.6296825,24.0166532 22.5324861,22.4657623 C22.6125232,22.4020085 22.7359703,22.3301158 22.6681422,22.1944694 C22.5935313,22.038476 22.4334571,22.0927346 22.3072969,22.0913781 C21.0863915,22.0913781 19.8654862,22.0913781 18.6445809,22.0913781 C18.4451664,22.0913781 18.2023419,22.1415673 18.1019563,21.924533 C18.0124232,21.7319151 18.2145509,21.5989816 18.3176496,21.4619787 C19.1831358,20.3062711 20.0594745,19.1559893 20.9181779,18.0002817 C21.0402685,17.8456448 21.3115808,17.7249194 21.1528631,17.4210714 L21.1542196,17.4210714 Z" id="形状" fill="#FFFFFF"></path>
                                <path d="M15.6502811,5.8537961 C15.6691076,5.88985183 15.6718974,5.93216427 15.6579679,5.97037973 C15.6391738,5.94351487 15.6224699,5.91524675 15.6080035,5.88582457 C15.6092846,5.88454343 15.6361886,5.86660749 15.6502811,5.8537961 Z" id="路径" fill="#444549"></path>
                                <path d="M11.269335,13.0931806 C11.2500524,13.054263 11.2540022,13.0078528 11.2795841,12.9727535 C11.2940831,13.0009701 11.305673,13.0305888 11.3141749,13.0611521 C11.315456,13.0739635 11.2847087,13.0931806 11.269335,13.0931806 Z" id="路径" fill="#444549"></path>
                                <path d="M26.7227632,12.9689101 C26.7489023,13.0066884 26.7528128,13.0555705 26.7330123,13.097024 C26.7137406,13.0704695 26.6970119,13.0421596 26.6830479,13.0124688 C26.6830479,13.0124688 26.7035461,12.9817215 26.7227632,12.9689101 Z" id="路径" fill="#444549"></path>
                            </g>
                        </g>
                        <ellipse id="椭圆形" fill="#F0F4C3" mask="url(#mask-2)" cx="39.5" cy="-3" rx="39.5" ry="33"></ellipse>
                    </g>
                    <text id="已插枪" font-family="PingFang-SC-Heavy, PingFang SC" font-size="14" font-weight="600" fill="#C0CA33">
                        <tspan x="17" y="19">已插枪</tspan>
                    </text>
                </g>
            </g>
        </g>
    </g>
</svg>