<?xml version="1.0" encoding="UTF-8"?>
<svg width="70px" height="70px" viewBox="0 0 70 70" version="1.1" xmlns="http://www.w3.org/2000/svg" xmlns:xlink="http://www.w3.org/1999/xlink">
    <!-- Generator: Sketch 55.2 (78181) - https://sketchapp.com -->
    <title>报文</title>
    <desc>Created with Sketch.</desc>
    <defs>
        <linearGradient x1="50%" y1="0%" x2="50%" y2="50%" id="linearGradient-1">
            <stop stop-color="#FA8561" offset="0%"></stop>
            <stop stop-color="#F7B31C" offset="100%"></stop>
        </linearGradient>
    </defs>
    <g id="页面1" stroke="none" stroke-width="1" fill="none" fill-rule="evenodd">
        <g id="主页展示" transform="translate(-627.000000, -653.000000)">
            <g id="订单查询" transform="translate(627.000000, 653.000000)">
                <rect id="报文" fill="#000000" fill-rule="nonzero" opacity="0" x="0" y="0" width="70" height="70"></rect>
                <path d="M24.0075,7.685 L39.285,7.685 C41.1075,7.685 42.60375,6.2 42.60375,4.36625 L42.60375,4.2425 C42.60375,2.42 41.11875,0.92375 39.285,0.92375 L24.0075,0.92375 C22.185,0.92375 20.68875,2.40875 20.68875,4.2425 L20.68875,4.36625 C20.68875,6.2 22.17375,7.685 24.0075,7.685 Z M30.88125,49.31 L17.6625,49.31 L17.6625,45.09125 L31.9725,45.09125 C34.605,38.3975 41.1075,33.65 48.735,33.65 C51.44625,33.65 54,34.26875 56.30625,35.3375 L56.30625,8.9675 C56.30625,6.39125 54.225,4.31 51.64875,4.31 L45.63,4.31 L45.63,4.3775 C45.63,7.87625 42.795,10.7225 39.285,10.7225 L24.0075,10.7225 C20.50875,10.7225 17.6625,7.8875 17.6625,4.3775 L17.6625,4.31 L11.64375,4.31 C9.0675,4.31 6.98625,6.39125 6.98625,8.9675 L6.98625,55.1825 C6.98625,57.75875 9.0675,59.84 11.64375,59.84 L32.6925,59.84 C31.4325,57.3875 30.7125,54.60875 30.7125,51.66125 C30.7125,50.8625 30.78,50.08625 30.88125,49.31 Z M17.6625,21.78125 L45.61875,21.78125 L45.61875,26 L17.6625,26 L17.6625,21.78125 Z M17.6625,33.43625 L32.355,33.43625 L32.355,37.655 L17.6625,37.655 L17.6625,33.43625 Z M59.265,60.2675 C61.23375,57.86 62.33625,54.85625 62.33625,51.66125 C62.33625,44.16875 56.23875,38.06 48.735,38.06 C41.23125,38.06 35.13375,44.1575 35.13375,51.66125 C35.13375,59.165 41.2425,65.2625 48.735,65.2625 C51.78375,65.2625 54.66375,64.2725 57.07125,62.405 C57.16125,62.3375 57.24,62.2475 57.33,62.18 L64.215,69.065 L66.13875,67.14125 L59.265,60.2675 Z M55.40625,60.25625 C53.4825,61.7525 51.17625,62.54 48.735,62.54 C42.73875,62.54 37.85625,57.6575 37.85625,51.66125 C37.85625,45.665 42.73875,40.7825 48.735,40.7825 C54.73125,40.7825 59.61375,45.665 59.61375,51.66125 C59.61375,55.0475 58.0725,58.175 55.40625,60.25625 Z" id="形状" fill="url(#linearGradient-1)"></path>
            </g>
        </g>
    </g>
</svg>