<?xml version="1.0" encoding="UTF-8"?>
<svg width="65px" height="65px" viewBox="0 0 65 65" version="1.1" xmlns="http://www.w3.org/2000/svg" xmlns:xlink="http://www.w3.org/1999/xlink">
    <!-- Generator: Sketch 55.2 (78181) - https://sketchapp.com -->
    <title>离网</title>
    <desc>Created with Sketch.</desc>
    <defs>
        <rect id="path-1" x="0" y="0" width="65" height="65" rx="10"></rect>
    </defs>
    <g id="页面1" stroke="none" stroke-width="1" fill="none" fill-rule="evenodd">
        <g id="主页展示备份" transform="translate(-1417.000000, -811.000000)">
            <g id="编组-8" transform="translate(1417.000000, 811.000000)">
                <text id="充电中备份-5" font-family="PingFangSC-Medium, PingFang SC" font-size="12" font-weight="400" fill="#FFFFFF">
                    <tspan x="33" y="14">充电中</tspan>
                </text>
                <rect id="离网" stroke="#979797" fill="#D8D8D8" opacity="0" x="0.5" y="0.5" width="64" height="64"></rect>
                <g id="chongdianzhuang备份-4" transform="translate(14.000000, 19.000000)" fill="#FFFFFF" fill-rule="nonzero">
                    <path d="M32.4486291,10.2349889 L31.150684,10.2349889 L31.150684,22.3890382 C31.150684,24.8620631 29.1167995,26.8668459 26.6078759,26.8668459 C24.0989523,26.8668459 22.0650678,24.8620631 22.0650678,22.3890382 L22.0650678,8.9556153 C22.0650678,8.24903677 21.483958,7.6762417 20.7671227,7.67624168 L20.7671227,28.1462195 L23.363013,28.1462195 L23.363013,30.7049667 L0,30.7049667 L0,28.1462195 L2.59589032,28.1462195 L2.59589032,2.55874722 C2.59589032,1.88012526 2.86938513,1.22929788 3.356209,0.749439698 C3.84303288,0.269581511 4.50330775,0 5.19178067,0 L18.1712323,0 C18.8597052,0 19.5199801,0.269581511 20.006804,0.749439698 C20.4936279,1.22929788 20.7671227,1.88012526 20.7671227,2.55874722 L20.7671227,5.11749446 C22.9176286,5.11749446 24.6609582,6.83587969 24.6609582,8.9556153 L24.6609582,22.3890382 C24.6609582,23.448906 25.5326229,24.3080987 26.6078759,24.3080987 C27.6831289,24.3080987 28.5547937,23.448906 28.5547937,22.3890382 L28.5547937,10.2349889 L27.2568485,10.2349889 C26.5400132,10.2349889 25.9589033,9.66219383 25.9589033,8.9556153 L25.9589033,6.39686806 C25.9589033,5.69028953 26.5400132,5.11749446 27.2568485,5.11749446 L27.2568485,4.47780764 C27.2568485,4.12451837 27.5474034,3.83812082 27.9058211,3.83812082 C28.2642387,3.83812082 28.5547937,4.12451837 28.5547937,4.47780764 L28.5547937,5.11749446 L31.150684,5.11749446 L31.150684,4.47780764 C31.150684,4.12451837 31.4412389,3.83812082 31.7996566,3.83812082 C32.1580742,3.83812082 32.4486291,4.12451837 32.4486291,4.47780764 L32.4486291,5.11749446 C33.1654645,5.11749448 33.7465743,5.69028954 33.7465743,6.39686806 L33.7465743,8.9556153 C33.7465743,9.66219382 33.1654645,10.2349889 32.4486291,10.2349889 Z M10.3835613,24.3080987 L15.575342,19.1906042 L11.6815065,19.1906042 L11.6815065,15.3524834 L7.78767099,20.4699778 L11.6815065,20.4699778 L10.3835613,24.3080987 Z M18.1712323,3.83812084 L5.19178067,3.83812084 L5.19178067,11.5143625 L18.1712323,11.5143625 L18.1712323,3.83812084 Z M31.150684,6.39686806 L28.5547937,6.39686806 C27.8379583,6.39686806 27.2568485,6.96966314 27.2568485,7.67624168 C27.2568485,8.38282022 27.8379583,8.9556153 28.5547937,8.9556153 L31.150684,8.9556153 C31.8675193,8.9556153 32.4486291,8.38282022 32.4486291,7.67624168 C32.4486291,6.96966314 31.8675193,6.39686806 31.150684,6.39686806 Z" id="形状"></path>
                </g>
                <g id="椭圆形备份-4">
                    <mask id="mask-2" fill="white">
                        <use xlink:href="#path-1"></use>
                    </mask>
                    <use id="蒙版" fill="#90A4AE" xlink:href="#path-1"></use>
                    <g id="duankaizhuangtai" mask="url(#mask-2)" fill="#FFFFFF" fill-rule="nonzero">
                        <g transform="translate(16.000000, 19.000000)" id="形状">
                            <path d="M7.19907987,20.4502939 C7.31499247,20.5662065 7.37091794,20.7139872 7.37091794,20.8898869 C7.37091794,21.0657867 7.31499244,21.2173166 7.19907987,21.32948 C7.08316728,21.4453926 6.93538653,21.5013181 6.75948681,21.5013181 L0.61112025,21.5013181 C0.435532969,21.5013181 0.283690594,21.4453926 0.171839625,21.32948 C0.0559270312,21.2135674 1.53124984e-06,21.0657867 1.53124984e-06,20.8898869 C1.53124984e-06,20.7142997 0.0559270312,20.5624573 0.171839625,20.4502939 C0.287752219,20.3343813 0.435532969,20.2784558 0.61112025,20.2784558 L6.75948681,20.2784558 C6.93538653,20.2784558 7.08722891,20.3343813 7.19907987,20.4502939 Z M19.7994977,9.44797016 L15.2092339,9.79164631 L9.96348594,4.52621506 C9.60387569,4.16660481 9.16865669,3.99101753 8.65720409,3.99101756 C8.15793634,3.99101756 7.72240494,4.16254322 7.35092225,4.50621938 L4.52652906,7.31061688 C4.16691881,7.67022713 3.99133153,8.09763528 3.99133153,8.60096463 C3.99133153,9.11241725 4.16691881,9.55201031 4.52652906,9.9072465 L9.78789869,15.1689286 L9.44016087,19.7788756 C8.992757,19.5073715 8.63314675,19.2436781 8.36570422,18.9721739 L1.91771453,12.5163734 C0.842945437,11.4134854 0.307747937,10.1072035 0.307747937,8.59721544 C0.307747937,7.06317003 0.855130344,5.76063734 1.93771025,4.69805316 L4.76210344,1.89365566 C5.82500009,0.831071438 7.12722031,0.299623125 8.66126572,0.299623125 C10.2071836,0.299623125 11.5178395,0.847005531 12.5804237,1.92958544 L18.9924836,8.36539025 C19.2599262,8.64095603 19.5317428,9.00056628 19.7994977,9.44797016 L19.7994977,9.44797016 Z M8.42537891,24.4053817 L3.51174706,29.3274492 C3.37177712,29.4433618 3.22399637,29.4992873 3.072154,29.4992873 C2.92031162,29.4992873 2.76846925,29.4433618 2.63256097,29.3274492 C2.51664837,29.1996642 2.46072287,29.0518834 2.46072287,28.8878561 C2.46072287,28.7241413 2.51664837,28.5722989 2.63256097,28.4482631 L7.54650522,23.5302572 C7.67429025,23.4143446 7.822071,23.3587315 7.98609828,23.3587315 C8.14981309,23.3587315 8.3016555,23.414657 8.42537891,23.5302572 C8.5412915,23.6583546 8.597217,23.8058229 8.597217,23.9698502 C8.60127862,24.1298158 8.54535316,24.2816582 8.42537891,24.4053817 Z M11.6737435,25.1924001 L11.6737435,31.3407666 C11.6737435,31.5163539 11.617818,31.6681963 11.5019054,31.7800473 C11.3859928,31.8959598 11.2382121,31.9518853 11.0623124,31.9518853 C10.8864127,31.9518853 10.7348827,31.8959598 10.6227193,31.7800473 C10.5068067,31.6641347 10.4508812,31.5166663 10.4508812,31.3407666 L10.4508812,25.1924001 C10.4508812,25.0168128 10.5068067,24.8649704 10.6227193,24.752807 C10.7386319,24.6368944 10.8864127,24.5809689 11.0623124,24.5809689 C11.2378997,24.5809689 11.389742,24.6368944 11.5019054,24.752807 C11.6175056,24.869032 11.6737435,25.0168128 11.6737435,25.1924001 Z M31.648827,23.3509207 C31.648827,24.8849661 31.1014446,26.1871863 30.0188647,27.250083 L27.1941591,30.0544805 C26.1315748,31.1170647 24.8290422,31.648513 23.2949967,31.648513 C21.7450172,31.648513 20.4387354,31.1011306 19.3758388,30.0185507 L12.9637788,23.5824335 C12.6919622,23.3109293 12.4282689,22.9553807 12.1567647,22.5079768 L16.7470286,22.1605514 L21.9884025,27.4219211 C22.3361402,27.7693464 22.7676101,27.9411845 23.2946843,27.9493078 C23.822071,27.957431 24.2576024,27.7896546 24.6009662,27.4419168 L27.4253594,24.6375193 C27.7849696,24.277909 27.9608693,23.8505009 27.9608693,23.3471715 C27.9608693,22.8357189 27.7849696,22.3964383 27.4253594,22.0408897 L22.160553,16.7629611 L22.5079783,12.1726973 C22.9553822,12.4442014 23.3149925,12.7078948 23.582435,12.9797114 L30.0344863,19.4317627 C31.113317,20.5384 31.648827,21.8406202 31.648827,23.3509207 Z M21.5053812,0.611118719 L21.5053812,6.75948528 C21.5053812,6.935385 21.4494557,7.08722738 21.3335432,7.19907831 C21.2176306,7.31499091 21.0701622,7.37091641 20.8939501,7.37091641 C20.7183628,7.37091641 20.5665205,7.31499091 20.4546695,7.19907831 C20.3387569,7.08316572 20.2828314,6.93538497 20.2828314,6.75948528 L20.2828314,0.611118719 C20.2828314,0.435531438 20.3387569,0.283689063 20.4546695,0.171838094 C20.5705821,0.0559255 20.7180504,0 20.8939501,0 C21.0698498,0 21.2216922,0.0559255 21.3335432,0.171838094 C21.4494557,0.287750687 21.5053812,0.431469813 21.5053812,0.611118719 Z M29.3274507,3.51143309 L24.4056956,8.429439 C24.2660381,8.54535159 24.1182574,8.60096462 23.966415,8.60096462 C23.8145726,8.60096462 23.6627302,8.54503912 23.526822,8.429439 C23.4109094,8.30134153 23.3549839,8.15387322 23.3549839,7.98984594 C23.3549839,7.82613112 23.4109094,7.67428872 23.526822,7.55025287 L28.4404538,2.63255941 C28.5682388,2.51664681 28.7160196,2.46072134 28.8800468,2.46072134 C29.0440741,2.46072134 29.1956041,2.51664684 29.3196399,2.63255941 C29.4355525,2.76034444 29.491478,2.90812519 29.491478,3.07215247 C29.4952272,3.23586728 29.4393017,3.38364803 29.3274507,3.51143309 Z M31.7844229,10.6186562 C31.9003355,10.7345688 31.9562609,10.8823495 31.9562609,11.0582492 C31.9562609,11.2341489 31.9003354,11.3856789 31.7844229,11.4975298 C31.6685103,11.6134424 31.5207295,11.6693679 31.3448298,11.6693679 L25.1927141,11.6693679 C25.0171268,11.6693679 24.8652844,11.6134424 24.753121,11.4975298 C24.6372084,11.3819297 24.5812829,11.2341489 24.5812829,11.0582492 C24.5812829,10.8826619 24.6372084,10.7305071 24.753121,10.6186562 C24.8690336,10.5027436 25.0168143,10.4468181 25.1927141,10.4468181 L31.3410806,10.4468181 C31.5207295,10.4468181 31.6685102,10.5027436 31.7844229,10.6186562 Z"></path>
                        </g>
                    </g>
                    <g id="资源-1" mask="url(#mask-2)" fill="#444549" fill-rule="nonzero">
                        <g transform="translate(23.000000, 20.000000)" id="路径">
                            <path d="M4.65028108,0.853796097 C4.66910755,0.889851827 4.67189738,0.932164265 4.65796792,0.970379727 C4.63917376,0.943514872 4.62246987,0.915246753 4.6080035,0.885824567 C4.60928464,0.884543428 4.63618856,0.866607485 4.65028108,0.853796097 Z"></path>
                            <path d="M0.269335016,8.09318056 C0.250052409,8.05426297 0.254002206,8.00785284 0.279584126,7.97275351 C0.294083068,8.00097007 0.305673018,8.03058884 0.314174874,8.06115209 C0.315456012,8.07396347 0.284708681,8.09318056 0.269335016,8.09318056 Z"></path>
                            <path d="M15.7227632,7.96891009 C15.7489023,8.0066884 15.7528128,8.0555705 15.7330123,8.09702397 C15.7137406,8.07046954 15.6970119,8.04215955 15.6830479,8.01246881 C15.6830479,8.01246881 15.7035461,7.98172148 15.7227632,7.96891009 Z"></path>
                        </g>
                    </g>
                    <ellipse id="椭圆形" fill="#CFD8DC" mask="url(#mask-2)" cx="39.5" cy="-3" rx="39.5" ry="33"></ellipse>
                </g>
                <text id="离网" font-family="PingFang-SC-Heavy, PingFang SC" font-size="14" font-weight="600" letter-spacing="1.16666667" fill="#90A4AE">
                    <tspan x="24" y="20">离网</tspan>
                </text>
            </g>
        </g>
    </g>
</svg>