<?xml version="1.0" encoding="UTF-8"?>
<svg width="28px" height="28px" viewBox="0 0 28 28" version="1.1" xmlns="http://www.w3.org/2000/svg" xmlns:xlink="http://www.w3.org/1999/xlink">
    <!-- Generator: Sketch 55.2 (78181) - https://sketchapp.com -->
    <title>密码</title>
    <desc>Created with Sketch.</desc>
    <g id="页面1" stroke="none" stroke-width="1" fill="none" fill-rule="evenodd">
        <g id="主页展示备份-2" transform="translate(-1036.000000, -524.000000)" fill-rule="nonzero">
            <g id="密码" transform="translate(1036.000000, 524.000000)">
                <rect fill="#000000" opacity="0" x="4" y="4" width="20" height="20"></rect>
                <path d="M20.90625,11.5 L7.125,11.5 C6.43464406,11.5 5.875,12.0596441 5.875,12.75 L5.875,22.75 C5.875,23.4403559 6.43464406,24 7.125,24 L20.90625,24 C21.5843719,23.9830417 22.125212,23.4283339 22.1250001,22.75 L22.1250001,12.75 C22.125212,12.0716661 21.5843719,11.5169583 20.90625,11.5 Z M14.9375,18.26875 L14.9375,20.40625 C14.9375,20.924017 14.517767,21.34375 14,21.34375 C13.482233,21.34375 13.0625,20.924017 13.0625,20.40625 L13.0625,18.26875 C12.32756,17.8444322 11.969246,16.9793857 12.1888891,16.1596667 C12.4085321,15.3399476 13.1513644,14.7699524 14,14.7699524 C14.8486356,14.7699524 15.5914679,15.3399476 15.8111109,16.1596667 C16.030754,16.9793857 15.67244,17.8444322 14.9375,18.26875 Z M14,4 C11.0288373,4.01028686 8.62278686,6.4163373 8.6125,9.3875 L8.6125,11.5 L10.4875,11.5 L10.4875,9.56875 C10.4875,7.63575338 12.0545034,6.06875 13.9875,6.06875 C15.9204966,6.06875 17.4875,7.63575338 17.4875,9.56875 L17.4875,11.5 L19.3625,11.5 L19.3625,9.3875 C19.3523258,6.4260256 16.961395,4.02394835 14,4 Z" id="形状" fill="#CED3E2"></path>
            </g>
        </g>
    </g>
</svg>