<?xml version="1.0" encoding="UTF-8"?>
<svg width="28px" height="28px" viewBox="0 0 28 28" version="1.1" xmlns="http://www.w3.org/2000/svg" xmlns:xlink="http://www.w3.org/1999/xlink">
    <!-- Generator: Sketch 55.2 (78181) - https://sketchapp.com -->
    <title>用户</title>
    <desc>Created with Sketch.</desc>
    <g id="页面1" stroke="none" stroke-width="1" fill="none" fill-rule="evenodd">
        <g id="主页展示备份-2" transform="translate(-1036.000000, -460.000000)" fill-rule="nonzero">
            <g id="用户-实色" transform="translate(1036.000000, 460.000000)">
                <rect id="用户" fill="#000000" opacity="0" x="0" y="0" width="28" height="28"></rect>
                <path d="M14,13.16 C16.5424,13.16 18.6116,11.0908 18.6116,8.5484 C18.6116,6.006 16.5424,3.9368 14,3.9368 C11.4576,3.9368 9.3884,6.006 9.3884,8.5484 C9.3884,11.0908 11.4576,13.16 14,13.16 Z M21.882,18.7068 C21.4508,17.6876 20.832,16.7748 20.0452,15.988 C19.2584,15.2012 18.3428,14.5824 17.3264,14.1512 C16.2708,13.7032 15.1536,13.4764 14.0028,13.4764 C12.852,13.4764 11.7348,13.7032 10.6792,14.1512 C9.66,14.5824 8.7472,15.2012 7.9604,15.988 C7.1736,16.7748 6.5548,17.6904 6.1236,18.7068 C5.6756,19.7624 5.4488,20.8796 5.4488,22.0304 L5.4488,22.9432 C5.4488,23.562 5.95,24.0632 6.5688,24.0632 L21.4424,24.0632 C22.0612,24.0632 22.5624,23.562 22.5624,22.9432 L22.5624,22.0304 C22.5568,20.8796 22.33,19.7624 21.882,18.7068 Z" id="形状" fill="#CED3E2"></path>
            </g>
        </g>
    </g>
</svg>